<?xml version="1.0" standalone="no"?>
<!DOCTYPE svg PUBLIC "-//W3C//DTD SVG 20010904//EN"
 "http://www.w3.org/TR/2001/REC-SVG-20010904/DTD/svg10.dtd">
<svg version="1.0" xmlns="http://www.w3.org/2000/svg"
 width="128.000000pt" height="128.000000pt" viewBox="0 0 128.000000 128.000000"
 preserveAspectRatio="xMidYMid meet">
<metadata>
Created by potrace 1.11, written by Peter Selinger 2001-2013
</metadata>
<g transform="translate(0.000000,128.000000) scale(0.100000,-0.100000)"
fill="#000000" stroke="none">
<path d="M369 1243 c-32 -52 -49 -92 -49 -114 0 -11 -7 -19 -15 -19 -8 0 -15
-4 -15 -10 0 -13 13 -13 27 1 6 6 17 11 24 13 8 1 30 18 49 37 19 19 51 47 70
62 29 22 33 29 24 44 -7 11 -26 19 -51 21 -37 3 -42 0 -64 -35z"/>
<path d="M899 1218 c-23 -58 -40 -79 -54 -68 -10 8 -11 1 -7 -36 5 -45 4 -46
-19 -39 -13 4 -30 12 -36 17 -15 12 -17 -1 -3 -22 5 -8 17 -15 26 -15 12 0 22
-15 31 -45 7 -25 18 -60 24 -78 7 -21 8 -76 3 -154 -5 -97 -4 -122 7 -129 26
-16 40 -10 33 15 -4 16 0 28 11 37 10 8 30 27 46 43 18 17 29 23 30 15 0 -8 4
-2 9 13 5 18 3 47 -5 79 -10 36 -10 48 -2 40 25 -25 30 -9 23 82 -3 50 -9 107
-12 126 -4 22 -3 32 3 28 6 -4 13 7 17 23 7 35 37 41 71 13 11 -10 8 -6 -7 10
-22 20 -35 26 -53 21 -16 -4 -25 -2 -25 6 0 6 -4 9 -9 6 -17 -11 -39 5 -34 25
4 16 0 19 -25 19 -24 0 -32 -6 -43 -32z"/>
<path d="M980 1219 c0 -5 5 -7 10 -4 6 3 10 8 10 11 0 2 -4 4 -10 4 -5 0 -10
-5 -10 -11z"/>
<path d="M175 1113 c-38 -53 -48 -85 -12 -39 12 15 38 41 57 57 32 26 33 28
13 29 -16 0 -34 -15 -58 -47z"/>
<path d="M340 1090 c0 -14 28 -19 33 -6 3 6 -4 13 -14 13 -10 1 -19 -2 -19 -7z"/>
<path d="M1 990 c0 -61 3 -99 8 -92 5 9 10 0 15 -28 7 -45 -1 -71 -15 -49 -5
8 -9 -47 -9 -133 0 -119 3 -146 13 -142 17 6 41 -21 32 -36 -3 -5 -15 -10 -26
-10 -15 0 -19 -7 -19 -31 l0 -32 22 29 c12 16 25 33 28 37 4 5 30 1 58 -8 41
-14 58 -15 84 -6 18 6 34 7 37 2 3 -4 36 -12 74 -15 74 -8 79 -16 44 -60 l-23
-29 -40 43 c-36 38 -41 40 -53 26 -12 -14 -12 -16 3 -10 21 8 20 -8 -4 -55
-21 -41 -47 -58 -64 -41 -16 16 -23 12 -29 -17 -3 -15 1 -36 8 -47 9 -14 12
-38 8 -69 l-6 -48 -39 6 c-29 5 -42 3 -51 -8 -7 -8 -21 -17 -32 -19 -16 -3
-21 -12 -23 -52 -4 -58 4 -66 70 -66 35 0 54 6 77 26 l31 25 -3 -38 -2 -38 68
-3 67 -3 0 43 0 43 22 -45 22 -45 4 38 c3 36 4 37 42 37 38 0 39 -1 42 -37 l3
-38 22 35 c12 19 25 53 29 76 9 61 18 72 42 51 11 -10 23 -32 28 -50 l8 -32 3
32 c5 38 30 56 71 51 l27 -3 -40 -39 -39 -38 30 6 29 7 -3 -46 -4 -45 68 0 67
0 -21 23 c-17 18 -22 36 -22 74 0 61 17 85 82 116 35 17 59 39 89 82 30 44 33
51 10 25 -23 -26 -33 -32 -39 -22 -5 7 -39 15 -76 19 l-67 6 -31 -37 c-20 -25
-34 -34 -41 -27 -6 6 -14 5 -24 -5 -20 -19 -43 -18 -43 4 0 38 32 118 57 144
14 15 42 33 60 39 33 10 33 12 19 34 -14 21 -13 24 21 46 50 33 70 65 76 124
5 41 4 47 -6 31 -39 -60 -69 -96 -98 -117 -35 -24 -35 -23 -14 36 4 12 3 15
-2 9 -10 -14 -110 -70 -140 -79 -15 -4 -32 1 -52 16 -29 21 -32 22 -70 7 -22
-9 -42 -13 -45 -10 -3 3 -6 24 -7 46 l-1 41 -10 -35 c-13 -49 -25 -58 -43 -34
-11 15 -14 16 -15 3 0 -8 5 -20 12 -27 17 -17 3 -15 -33 4 -42 21 -54 14 -29
-19 21 -27 21 -27 1 -27 -28 0 -86 53 -77 69 5 7 15 10 23 7 21 -8 39 4 22 15
-11 6 -9 12 8 29 l23 20 6 -25 c3 -14 11 -25 16 -25 6 0 8 10 4 23 -3 12 -6
49 -6 82 0 42 -3 56 -10 45 -5 -8 -10 -31 -10 -50 0 -33 -1 -33 -17 -17 -17
17 -17 19 0 48 19 34 25 179 7 179 -5 0 -10 5 -10 11 0 5 4 7 10 4 5 -3 12 7
16 22 3 15 10 45 15 66 8 31 7 40 -9 57 l-19 20 -19 -21 c-19 -21 -19 -21 1
-18 24 5 32 -25 14 -57 l-12 -23 -31 26 c-17 14 -30 30 -29 34 3 9 -38 -1 -55
-14 -10 -8 -101 -20 -102 -14 0 1 -9 27 -20 57 l-19 55 0 -105z m214 -89 c6
-11 -51 -81 -66 -81 -5 0 -16 12 -26 26 -16 25 -16 27 8 45 25 20 74 25 84 10z
m-162 -130 c-9 -12 -25 20 -18 36 7 16 9 15 15 -7 4 -14 5 -27 3 -29z m90 -48
c4 -3 2 -12 -4 -20 -9 -10 -15 -10 -25 -2 -8 6 -11 15 -8 20 6 11 28 12 37 2z
m37 -53 c0 -5 -5 -12 -11 -16 -14 -8 -33 11 -25 25 7 11 36 4 36 -9z m47 -62
c-3 -8 -6 -5 -6 6 -1 11 2 17 5 13 3 -3 4 -12 1 -19z m188 -88 c18 -7 18 -8
-7 -15 -29 -7 -52 1 -43 16 7 11 23 11 50 -1z m215 -6 c0 -9 -41 -44 -52 -44
-13 0 -9 17 8 34 15 16 44 22 44 10z m-95 -14 c3 -5 -7 -17 -22 -27 -15 -9
-38 -28 -50 -40 -12 -13 -31 -23 -43 -23 -17 0 -20 6 -20 40 0 36 3 40 25 40
14 0 25 5 25 10 0 13 77 13 85 0z m103 -67 c-16 -2 -40 -2 -55 0 -16 2 -3 4
27 4 30 0 43 -2 28 -4z m-95 -10 c-7 -2 -21 -2 -30 0 -10 3 -4 5 12 5 17 0 24
-2 18 -5z m87 -25 c0 -2 -11 -30 -25 -63 -19 -47 -25 -54 -25 -32 0 15 -7 43
-14 62 l-15 35 40 0 c21 0 39 -1 39 -2z m-248 -123 c0 -5 -5 -11 -11 -13 -6
-2 -11 4 -11 13 0 9 5 15 11 13 6 -2 11 -8 11 -13z m78 -65 c24 -33 26 -66 5
-74 -18 -6 -68 73 -63 101 5 32 22 43 31 21 4 -11 16 -33 27 -48z m-175 20 c3
-6 -6 -15 -20 -20 -34 -13 -34 -13 -28 10 6 21 37 27 48 10z m-63 -32 c4 -10
13 -10 41 -1 20 6 37 8 37 5 0 -14 -40 -72 -49 -72 -11 0 -61 58 -61 71 0 13
28 11 32 -3z m211 -63 l38 -55 -48 0 c-72 0 -80 9 -59 64 10 25 21 46 24 46 4
-1 24 -25 45 -55z"/>
<path d="M441 1047 c0 -10 -12 -40 -26 -67 -24 -48 -35 -83 -14 -47 14 25 25
21 39 -13 7 -16 19 -35 28 -42 13 -11 14 -11 7 2 -6 8 -15 53 -21 100 -7 47
-12 77 -13 67z"/>
<path d="M130 1020 c-9 -6 -10 -10 -3 -10 6 0 15 5 18 10 8 12 4 12 -15 0z"/>
<path d="M641 1020 c-1 -8 -4 -26 -8 -39 -4 -16 -2 -22 4 -18 10 6 28 -19 25
-35 -1 -3 5 -9 13 -12 17 -6 21 9 5 19 -5 3 -10 14 -10 23 -1 23 -28 81 -29
62z"/>
<path d="M561 908 c-1 -20 3 -39 8 -43 16 -9 18 8 5 45 l-13 35 0 -37z"/>
<path d="M1202 880 c0 -36 4 -76 8 -90 11 -33 11 83 0 125 -6 23 -8 15 -8 -35z"/>
<path d="M359 884 c-1 -16 0 -36 1 -44 1 -8 3 -22 4 -30 0 -8 5 -18 10 -21 5
-4 5 -12 1 -18 -5 -9 -10 -9 -21 0 -11 9 -14 6 -15 -17 l-1 -29 -13 35 -13 35
-1 -40 c0 -52 23 -142 33 -126 4 6 17 11 29 9 20 -3 22 1 19 36 -3 26 0 36 7
32 16 -11 13 5 -5 25 -14 16 -15 23 -4 48 13 33 46 68 34 37 -3 -9 -1 -16 5
-16 6 0 11 -4 11 -10 0 -5 -7 -7 -16 -3 -14 5 -15 3 -6 -14 17 -32 62 -19 62
17 0 50 -60 79 -94 44 -14 -14 -16 -12 -14 25 1 23 -2 44 -5 48 -4 3 -8 -7 -8
-23z m-4 -214 c-3 -4 0 -10 7 -12 8 -3 6 -7 -5 -11 -13 -5 -16 -1 -15 18 1 13
6 21 10 19 5 -3 6 -9 3 -14z"/>
<path d="M496 839 c21 -23 26 -24 22 -2 -2 9 -11 17 -21 19 -18 2 -18 2 -1
-17z"/>
<path d="M540 816 c0 -2 8 -10 18 -17 15 -13 16 -12 3 4 -13 16 -21 21 -21 13z"/>
<path d="M1038 770 c-4 -25 -25 -121 -48 -215 -22 -93 -39 -176 -37 -185 2
-13 65 87 82 133 10 25 35 21 34 -5 -1 -33 -17 -71 -76 -180 -62 -113 -66
-133 -25 -123 30 7 142 62 157 76 11 11 -22 1 -40 -11 -19 -14 -55 -18 -62 -8
-4 7 -1 8 7 3 8 -5 11 -3 8 6 -3 8 -12 13 -22 11 -10 -2 -16 4 -16 16 0 24 43
103 70 127 24 22 25 45 5 148 -8 43 -16 104 -16 135 -1 32 -4 71 -8 87 -7 29
-7 28 -13 -15z"/>
<path d="M632 778 c-8 -10 1 -13 39 -14 54 -1 71 -10 49 -25 -11 -8 -8 -10 13
-6 20 3 27 0 28 -12 0 -9 7 0 14 19 19 48 18 56 -3 36 -17 -15 -22 -15 -48 -1
-35 18 -78 19 -92 3z"/>
<path d="M543 663 c-36 -4 -43 -8 -43 -26 0 -45 13 -50 69 -31 28 10 51 23 51
29 0 12 -21 36 -29 33 -4 -1 -25 -3 -48 -5z"/>
<path d="M1200 630 c0 -5 5 -10 10 -10 6 0 10 5 10 10 0 6 -4 10 -10 10 -5 0
-10 -4 -10 -10z"/>
<path d="M16 391 c-10 -11 -16 -25 -14 -32 2 -7 12 0 22 16 21 32 16 43 -8 16z"/>
<path d="M1149 323 c-4 -37 -3 -40 13 -32 13 7 16 15 9 27 -4 9 -10 24 -13 32
-3 8 -7 -4 -9 -27z"/>
<path d="M1 223 c-1 -18 4 -33 9 -33 12 0 12 17 0 45 -7 17 -9 15 -9 -12z"/>
<path d="M1173 173 c4 -38 7 -92 7 -120 0 -43 3 -53 16 -53 15 0 16 10 10 82
-10 117 -17 158 -29 158 -6 0 -8 -24 -4 -67z"/>
<path d="M1044 162 c-6 -5 -4 -13 8 -24 19 -19 21 -15 10 14 -4 10 -12 14 -18
10z"/>
<path d="M831 139 c-21 -8 -23 -14 -18 -46 9 -51 52 -93 95 -93 26 0 33 4 29
14 -3 8 2 25 12 38 74 98 77 102 54 90 -11 -7 -29 -23 -40 -37 l-18 -26 -42
36 c-23 19 -43 35 -45 34 -1 0 -14 -5 -27 -10z m49 -34 c10 -13 9 -15 -9 -15
-12 0 -21 6 -21 15 0 8 4 15 9 15 5 0 14 -7 21 -15z"/>
<path d="M1056 93 c-6 -14 -5 -15 5 -6 7 7 10 15 7 18 -3 3 -9 -2 -12 -12z"/>
<path d="M1244 67 c3 -10 6 -30 6 -43 0 -13 5 -24 10 -24 11 0 3 45 -12 70 -8
12 -8 11 -4 -3z"/>
<path d="M1057 25 c-17 -24 -17 -25 3 -25 12 0 20 7 20 17 0 14 3 14 22 -3
l22 -19 -20 27 c-23 33 -25 33 -47 3z"/>
</g>
</svg>
